HIERARCHY
ROOT Hips
{
  OFFSET 179.979 97.3047 303.174
  CHANNELS 6 Xposition Yposition Zposition Zrotation Xrotation Yrotation
  JOINT Spine
  {
    OFFSET 0.000859786 9.92346 -1.22733
    CHANNELS 3 Zrotation Xrotation Yrotation
    JOINT Spine1
    {
      OFFSET 0 11.732 0
      CHANNELS 3 Zrotation Xrotation Yrotation
      JOINT Spine2
      {
        OFFSET 0 13.4588 0
        CHANNELS 3 Zrotation Xrotation Yrotation
        JOINT Neck
        {
          OFFSET 2.54812e-05 15.0278 0.877907
          CHANNELS 3 Zrotation Xrotation Yrotation
          JOINT Head
          {
            OFFSET 0 10.3218 3.14243
            CHANNELS 3 Zrotation Xrotation Yrotation
            End Site
            {
              OFFSET 0 0 0
            }
          }
        }
        JOINT LeftShoulder
        {
          OFFSET 6.10582 9.10629 0.757062
          CHANNELS 3 Zrotation Xrotation Yrotation
          JOINT LeftArm
          {
            OFFSET 0 12.9223 0
            CHANNELS 3 Zrotation Xrotation Yrotation
            JOINT LeftForeArm
            {
              OFFSET 0 27.4047 0
              CHANNELS 3 Zrotation Xrotation Yrotation
              JOINT LeftHand
              {
                OFFSET -1.28204e-05 27.6145 0
                CHANNELS 3 Zrotation Xrotation Yrotation
                End Site
                {
                  OFFSET 0 0 0
                }
              }
            }
          }
        }
        JOINT RightShoulder
        {
          OFFSET -6.1057 9.10638 0.757076
          CHANNELS 3 Zrotation Xrotation Yrotation
          JOINT RightArm
          {
            OFFSET 0 12.9223 0
            CHANNELS 3 Zrotation Xrotation Yrotation
            JOINT RightForeArm
            {
              OFFSET 0 27.4047 0
              CHANNELS 3 Zrotation Xrotation Yrotation
              JOINT RightHand
              {
                OFFSET 1.28428e-05 27.6145 1.44975e-05
                CHANNELS 3 Zrotation Xrotation Yrotation
                End Site
                {
                  OFFSET 0 0 0
                }
              }
            }
          }
        }
      }
    }
  }
  JOINT LeftUpLeg
  {
    OFFSET 9.12387 -6.65719 -0.0554031
    CHANNELS 3 Zrotation Xrotation Yrotation
    JOINT LeftLeg
    {
      OFFSET 0 40.5994 0
      CHANNELS 3 Zrotation Xrotation Yrotation
      JOINT LeftFoot
      {
        OFFSET 0 42.099 0
        CHANNELS 3 Zrotation Xrotation Yrotation
        JOINT LeftToeBase
        {
          OFFSET 0 15.7216 0
          CHANNELS 3 Zrotation Xrotation Yrotation
          End Site
          {
            OFFSET 0 0 0
          }
        }
      }
    }
  }
  JOINT RightUpLeg
  {
    OFFSET -9.12503 -6.6556 -0.0553527
    CHANNELS 3 Zrotation Xrotation Yrotation
    JOINT RightLeg
    {
      OFFSET 0 40.5994 0
      CHANNELS 3 Zrotation Xrotation Yrotation
      JOINT RightFoot
      {
        OFFSET 0 42.099 0
        CHANNELS 3 Zrotation Xrotation Yrotation
        JOINT RightToeBase
        {
          OFFSET 0 15.7216 0
          CHANNELS 3 Zrotation Xrotation Yrotation
          End Site
          {
            OFFSET 0 0 0
          }
        }
      }
    }
  }
}
MOTION
Frames:	17
Frame Time:	0.0333333
-218.245 83.9836 438.207 -6.64945 12.0608 134.637 -2.40311 -1.13664 5.31217 -5.44072 11.3915 11.5401 -6.82631 17.8487 11.8886 -22.7807 18.0365 0.458786 9.505 -11.9523 -9.80301 -112.682 -20.4416 88.4806 -36.565 46.7022 42.3646 89.5058 -2.48893 0.976225 -1.78641 -24.7619 17.6595 96.9486 -14.5805 -90.3187 -24.7661 33.158 30.0856 -97.9444 0.945504 0.176948 -12.5792 -13.8617 -22.9662 166.599 25.8851 -10.9664 -5.48407 -66.8187 -10.5925 143.588 80.419 -138.615 -0.96527 26.367 -3.60229 168.882 16.0621 12.2697 -151.614 -82.1766 -152.502 5.77474 57.592 -0.405184 0.963531 26.3682 3.55537 
-215.842 83.6683 439.484 -7.30753 13.0038 141.586 -2.64846 -0.666455 5.12107 -5.97982 12.3095 11.2778 -7.34143 18.7726 11.6412 -22.6699 19.9319 0.10806 10.8829 -11.3133 -10.7382 -114.547 -20.8751 88.2282 -36.5894 51.5945 37.9682 91.2336 -2.52444 1.03275 1.43578 -23.3986 23.9024 96.9133 -14.1271 -90.3886 -27.9144 35.1346 43.5353 -102.063 1.8657 0.107703 -13.7434 -13.6545 -23.0137 166.644 24.5664 -7.59594 -4.9434 -68.0951 -7.62944 152.562 81.4047 -147.833 -0.96527 26.367 -3.60229 169.375 21.0279 5.00418 -165.504 -72.7533 -169.082 7.927 56.2257 -3.31315 0.963531 26.3682 3.55537 
-212.948 84.1075 440.996 -8.15598 12.8138 149.246 -2.78763 -0.30542 4.77903 -6.27145 13.0326 10.6681 -7.56589 19.5093 11.0293 -22.2152 21.039 -0.502312 14.1493 -10.923 -11.8696 -113.568 -20.0731 88.5487 -35.9596 55.7002 36.6092 93.7221 -2.28728 1.12451 5.61969 -23.5386 27.6129 96.9485 -13.7384 -90.4486 -32.1526 37.7692 55.0093 -107.232 2.66551 0.0043279 -14.6844 -14.1595 -22.9104 168.309 23.6057 -4.23134 -5.25256 -67.6428 -4.50274 165.035 83.2674 -160.031 -0.96527 26.367 -3.60229 170.297 26.1116 0.323237 -168.839 -65.8281 -174.553 5.90294 57.0197 -6.26881 0.963531 26.3682 3.55537 
-209.532 85.269 442.529 -8.68601 11.0605 158.103 -2.66084 -0.214529 4.15831 -5.95164 13.264 9.37722 -7.09252 19.7674 9.70019 -21.2814 22.3709 -1.79518 16.4384 -10.8147 -13.3954 -112.925 -18.2803 89.1442 -31.1037 56.6829 32.7679 96.4144 -2.10183 1.22306 11.514 -22.94 36.716 97.1557 -13.2426 -90.5277 -34.8029 39.73 60.8389 -111.618 3.41779 -0.0819418 -15.0604 -14.014 -23.4582 171 23.6198 -0.895874 -2.87583 -65.5392 1.77999 -166.53 85.7495 171.594 -0.96527 26.367 -3.60229 170.77 30.7634 -1.22704 -169.804 -62.6869 -176.374 6.39017 56.9046 -7.18358 0.963531 26.3682 3.55537 
-205.716 87.3977 443.954 -8.63836 9.70412 166.963 -2.44713 0.023061 3.58754 -5.47144 13.7898 8.16486 -6.4691 20.3152 8.45624 -18.8985 23.1243 -3.54534 18.5253 -10.5232 -14.6217 -110.635 -16.0172 89.8758 -22.663 57.0635 28.2961 98.2581 -2.3266 1.28048 17.0497 -21.4794 46.3531 97.3932 -13.5478 -90.4825 -37.0357 41.6556 60.4937 -113.875 3.20771 -0.109493 -15.9604 -11.97 -28.0857 173.538 22.2999 5.01383 -3.86972 -59.9335 4.14008 -90.8274 86.6783 94.6453 -0.96527 26.367 -3.60229 170.584 32.7438 -0.732185 -169.601 -63.8241 -175.903 7.89901 57.7731 -6.90655 0.963531 26.3682 3.55537 
-201.342 89.9963 445.376 -8.46498 8.19317 174.782 -2.32219 0.109446 3.11161 -5.1649 13.9971 7.16293 -6.04185 20.5383 7.42215 -16.5623 24.0724 -4.97464 20.7768 -10.0283 -15.6072 -107.832 -14.3369 90.3464 -11.9464 56.641 23.217 99.1217 -2.68893 1.29963 20.8797 -19.8558 53.0301 98.7355 -12.6539 -90.648 -36.3648 42.1558 53.7148 -112.647 3.17616 -0.0898894 -15.4067 -9.8435 -32.0514 176.136 20.3805 11.4545 -4.21062 -51.1716 5.99482 -46.3186 82.6461 47.3071 -0.96527 26.367 -3.60229 171.97 34.0018 -0.192453 -168.376 -68.1675 -173.988 7.6622 58.6914 -6.40244 0.963531 26.3682 3.55537 
-196.713 92.8368 446.54 -6.83736 6.12909 -177.809 -1.86952 -0.0704443 2.72103 -4.17373 13.6893 6.19484 -4.93106 20.244 6.41505 -14.3152 25.0204 -6.45426 23.0975 -8.96166 -16.7882 -105.708 -12.1291 90.8594 -0.861983 55.0163 17.7065 99.0076 -2.80761 1.29207 21.2721 -18.5685 52.1879 99.6278 -13.149 -90.5762 -36.7612 42.651 43.4622 -107.228 2.33585 0.014503 -13.2183 -6.89993 -36.2376 -179.356 18.4561 16.8736 -3.6933 -39.7969 8.14347 -32.1197 76.1681 30.0982 -0.96527 26.367 -3.60229 175.459 34.5676 0.0206422 -164.711 -75.6584 -169.324 8.33014 59.6446 -5.48507 0.963531 26.3682 3.55537 
-192.085 95.0904 447.437 -5.07991 4.08744 -170.503 -1.4415 -0.470514 2.19581 -3.20796 12.9352 4.95779 -3.81137 19.5042 5.12584 -12.0643 25.6001 -7.98312 24.3176 -7.41976 -17.9035 -103.289 -10.0623 91.2386 8.48983 54.0277 13.4786 98.606 -2.84655 1.27676 21.5328 -19.4546 48.4425 100.416 -13.6665 -90.4909 -37.6326 42.6414 32.2754 -99.2104 0.721945 0.169289 -7.57445 -4.36607 -40.5366 -175.316 16.9914 18.8888 -1.33195 -28.8811 8.16399 -18.8889 71.1356 17.9045 -0.96527 26.367 -3.60229 178.87 34.4261 -0.601016 -147.548 -84.4754 -151.309 9.31456 61.0776 -4.78817 0.963531 26.3682 3.55537 
-187.845 96.3133 447.873 -4.59942 2.19373 -162.483 -1.39193 -0.953506 1.33265 -2.9862 11.9971 3.17959 -3.3707 18.5812 3.28048 -9.4139 25.6772 -9.32219 25.3112 -6.98005 -18.3341 -101.833 -7.2046 91.7338 14.3991 52.4877 9.93641 99.313 -2.71986 1.3055 21.9203 -19.5009 47.389 101.374 -13.5203 -90.528 -38.6475 42.307 21.4504 -89.3973 -1.55385 0.348855 -3.87008 -2.65941 -44.47 -175.872 17.7151 16.8813 1.5257 -27.0317 -3.6779 15.8727 72.6566 -12.3394 -0.96527 26.367 -3.60229 -179.865 33.7172 -1.02472 -26.967 -84.6526 -31.4761 9.98711 62.4757 -6.45965 0.963531 26.3682 3.55537 
-184.21 96.3735 448.088 -5.14447 1.70884 -154.614 -1.50264 -1.1358 0.44304 -3.11191 11.6539 1.41889 -3.2822 18.2463 1.46221 -7.21764 24.6418 -11.116 25.359 -5.44345 -19.4153 -100.419 -4.65694 92.0976 21.3834 52.3584 4.69593 100.975 -2.76479 1.36272 23.8711 -19.0549 48.8296 102.619 -12.7674 -90.6962 -38.9604 41.3411 7.72461 -80.1477 -7.36671 0.61495 -2.81969 -0.61534 -49.7909 -176.431 20.167 7.58013 4.29393 -35.4344 -12.7747 30.843 68.6639 -30.9868 -0.96527 26.367 -3.60229 -179.314 30.9611 -3.03112 -6.2759 -75.522 -12.6443 11.7918 62.6497 -9.36934 0.963531 26.3682 3.55537 
-180.695 95.0024 448.184 -5.28764 2.18127 -146.343 -1.36071 -1.20366 -0.258427 -2.7487 11.5387 -0.0463194 -2.74127 18.1332 -0.0487543 -4.96984 22.9964 -13.1522 26.0261 -2.91916 -21.0267 -100.259 -3.37262 92.313 32.8618 51.5224 -3.86013 101.37 -2.70775 1.37875 26.6675 -18.4075 51.3326 103.196 -12.8998 -90.6783 -38.6402 42.0248 -4.19462 -71.3308 -12.1304 0.836769 -4.3216 -1.8662 -50.1681 -176.295 23.7636 2.10749 8.81945 -50.7715 -9.65348 31.4984 67.2422 -31.281 -0.96527 26.367 -3.60229 -177.057 27.5495 -5.46886 -3.19091 -66.0311 -10.5895 10.1922 60.6514 -10.3724 0.963531 26.3682 3.55537 
-177.338 92.6594 448.062 -6.14116 3.46337 -137.705 -1.20813 -1.14912 -0.744838 -2.38759 11.6592 -1.07872 -2.25494 18.2525 -1.11332 -1.16351 22.7744 -16.0712 24.4859 -2.51409 -22.1736 -99.0437 -1.76375 92.4557 45.8905 51.5615 -14.2028 102.045 -2.79268 1.39965 27.9312 -17.8534 54.0481 104.558 -13.6589 -90.5302 -35.6691 43.9675 -13.0867 -64.9595 -13.9886 0.928566 -3.65999 -3.52984 -46.8019 -176.311 25.5812 2.89232 12.3348 -67.0195 -1.81326 26.5459 66.5227 -23.9955 -0.96527 26.367 -3.60229 -174.428 23.7461 -7.03401 -0.901749 -62.5806 -8.55272 3.49572 66.0965 -11.9785 0.963531 26.3682 3.55537 
-174.14 89.8732 447.864 -7.82086 4.87933 -128.912 -0.989596 -0.958923 -1.19771 -1.89289 12.0464 -2.06546 -1.64006 18.6364 -2.13258 -0.135511 23.18 -17.3629 25.5419 -2.64238 -23.2665 -99.1489 -0.633574 92.6572 58.84 50.7839 -25.0028 103.649 -2.93701 1.45257 28.5543 -17.2563 56.5435 105.969 -14.3048 -90.3894 -31.0225 46.4844 -20.0057 -59.9199 -15.5118 0.997301 -2.2866 -4.31126 -41.976 -175.734 24.9735 4.13987 18.166 -81.2843 8.20455 17.3563 64.2694 -15.9522 -0.96527 26.367 -3.60229 -173.465 20.4701 -3.6318 3.43824 -63.3383 -0.460637 -15.043 80.9263 1.59136 0.963531 26.3682 3.55537 
-170.704 87.1904 447.889 -8.93353 6.91672 -120.901 -0.418731 -0.632686 -1.57923 -0.678888 12.6926 -3.03697 -0.306764 19.2774 -3.13929 0.088006 23.7308 -17.8312 25.0641 -3.8296 -23.3564 -99.6131 -0.899831 92.6711 71.5957 49.9958 -36.3387 105.178 -2.86515 1.51354 29.5186 -16.2611 60.0334 107.573 -14.5462 -90.333 -26.3369 48.8764 -24.1418 -55.0881 -16.428 1.03479 -1.09896 -5.72248 -37.5229 -174.292 23.0725 3.02303 128.092 -86.0668 120.151 9.5862 56.9434 -9.82017 -0.96527 26.367 -3.60229 -171.292 19.6447 4.57558 -1.46167 -64.3933 -0.990047 -105.702 86.0068 92.8214 0.963531 26.3682 3.55537 
-167.066 85.054 447.901 -9.38486 6.98037 -114.645 0.0220325 -0.674618 -1.64264 0.228181 12.5969 -3.32331 0.63486 19.1799 -3.43416 -0.273441 24.0796 -17.3067 23.7707 -4.75651 -22.5807 -99.5372 -1.24507 92.6031 82.4051 50.818 -46.9967 107.649 -2.79654 1.6167 30.0102 -14.2881 65.2457 109.345 -15.4367 -90.0925 -22.4386 50.7403 -27.4716 -47.9385 -16.252 1.01722 -2.00921 -9.37974 -33.4475 -173.429 21.2237 -0.422172 161.282 -79.594 156.299 3.68153 49.9412 -5.25861 -0.96527 26.367 -3.60229 -169.636 23.3522 6.55576 -1.5598 -67.3429 2.2704 -124.563 83.098 112.657 0.963531 26.3682 3.55537 
-163.299 83.8614 448.071 -10.3474 6.41748 -108.494 0.365554 -0.719465 -1.73434 0.938944 12.4954 -3.63088 1.38267 19.0762 -3.75082 -0.75298 25.8744 -15.3433 21.6911 -6.57476 -20.1641 -100.827 -1.78062 92.6624 85.8311 52.3619 -51.1467 110.652 -2.46691 1.73045 29.9032 -14.9898 64.0448 110.527 -15.4956 -90.0666 -19.0258 52.8512 -31.14 -38.8582 -15.3402 0.943553 -1.88969 -9.65287 -28.8911 -173.286 17.3793 -4.72319 165.089 -76.5342 165.137 -2.47467 44.305 -0.475749 -0.96527 26.367 -3.60229 -172.222 26.8155 12.7778 -1.26482 -69.2702 3.19086 -115.104 82.9083 102.097 0.963531 26.3682 3.55537 
-159.851 83.8596 448.067 -11.0429 5.49331 -102.016 0.735042 -1.06498 -1.76279 1.68255 11.7905 -3.81184 2.14629 18.37 -3.93144 -1.55726 26.5914 -12.6737 18.8148 -6.12363 -17.3663 -100.898 -2.82371 92.4779 84.0837 55.5486 -50.0042 112.669 -2.06194 1.81377 27.7396 -18.7036 57.7538 110.711 -15.5105 -90.0608 -15.0441 54.5216 -37.557 -30.7089 -12.419 0.778557 2.53362 -5.63402 -23.1413 -172.729 11.9852 -8.97578 164.508 -77.9123 168.949 -8.12571 41.4645 2.57308 -0.96527 26.367 -3.60229 -176.086 28.1213 20.3134 -0.958539 -67.9471 3.58162 -103.639 83.015 89.8312 0.963531 26.3682 3.55537 
